<svg width="12" height="12" viewBox="0 0 12 12" fill="none" xmlns="http://www.w3.org/2000/svg">
<path d="M8.59476 7.58833L8.31061 7.88788C8.31061 7.88788 7.63427 8.59938 5.78885 6.65663C3.94344 4.71387 4.61978 4.00237 4.61978 4.00237L4.79839 3.81325C5.23991 3.34905 5.28175 2.60316 4.89643 2.05829L4.10956 0.945402C3.63243 0.270926 2.71129 0.181657 2.16485 0.756945L1.18437 1.7885C0.913962 2.07416 0.732856 2.44314 0.754713 2.85311C0.810919 3.90252 1.25931 6.15937 3.75983 8.79247C6.41211 11.5843 8.90076 11.6954 9.91808 11.5948C10.2403 11.5631 10.5201 11.3899 10.7456 11.1518L11.6324 10.2181C12.2319 9.58795 12.0633 8.50681 11.2964 8.06575L10.1036 7.37871C9.60021 7.08975 8.9882 7.17439 8.59476 7.58833Z" fill="black"/>
</svg>
