<svg width="324" height="65" viewBox="0 0 324 65" fill="none" xmlns="http://www.w3.org/2000/svg">
<path d="M27.8499 8.95416C40.9149 11.9081 47.9426 20.8356 47.8924 34.1329C47.8649 41.4288 47.8875 48.7249 47.8875 56.1483C44.7499 56.1483 41.7903 56.1483 38.5182 56.1483C38.5182 54.3659 38.5183 52.5975 38.5182 50.8291C38.5177 44.6177 38.5816 38.4054 38.4997 32.195C38.4065 25.1307 32.9759 19.0341 26.2163 18.2388C18.6668 17.3505 12.0683 21.6719 10.2003 28.7278C8.32959 35.7939 11.8107 42.9091 18.5422 45.7422C19.2385 46.0353 19.9782 46.2255 20.946 46.5456C20.946 41.7748 20.946 37.2602 20.946 32.6093C23.7657 32.6093 26.3946 32.6093 29.1421 32.6093C29.1421 40.4044 29.1421 48.1672 29.142 55.9302C14.9722 58.2536 3.77668 49.7945 0.920965 37.7191C-2.06008 25.1137 6.06891 12.0878 18.7493 9.38078C21.6156 8.76888 24.6729 9.05128 27.8499 8.95416Z" fill="#3063E6"/>
<path d="M71.6726 52.2117C71.6726 53.6066 71.6726 54.7759 71.6726 56.1158C68.561 56.1158 65.5514 56.1158 62.2788 56.1158C62.2788 54.5115 62.2751 52.9638 62.2794 51.4161C62.2974 44.9708 62.3278 38.5256 62.3351 32.0803C62.3463 22.1579 55.6599 13.0725 45.9961 9.85493C45.4191 9.66282 44.8414 9.47312 44.0913 9.22523C55.6051 6.41863 68.3305 14.8754 71.0739 27.0454C71.4845 28.8671 71.6443 30.7776 71.6631 32.6497C71.7278 39.0945 71.6785 45.5405 71.6726 52.2117Z" fill="#3063E6"/>
<path d="M129.965 25.4833C129.239 24.1456 128.188 23.1329 126.812 22.445C125.474 21.7188 123.888 21.3558 122.054 21.3558C118.882 21.3558 116.34 22.4067 114.429 24.5087C112.518 26.5725 111.563 29.3433 111.563 32.8211C111.563 36.5282 112.557 39.4327 114.544 41.5347C116.569 43.5984 119.34 44.6303 122.856 44.6303C125.264 44.6303 127.289 44.0188 128.933 42.7959C130.614 41.5729 131.837 39.8149 132.602 37.5218H120.162V30.2987H141.487V39.4136C140.761 41.8595 139.519 44.1335 137.761 46.2355C136.041 48.3374 133.844 50.0381 131.169 51.3375C128.493 52.6369 125.474 53.2866 122.111 53.2866C118.136 53.2866 114.582 52.4267 111.448 50.7069C108.353 48.9489 105.926 46.5221 104.168 43.4265C102.448 40.3308 101.588 36.7957 101.588 32.8211C101.588 28.8464 102.448 25.3113 104.168 22.2157C105.926 19.0818 108.353 16.655 111.448 14.9352C114.544 13.1772 118.079 12.2982 122.054 12.2982C126.869 12.2982 130.92 13.4638 134.207 15.7951C137.532 18.1264 139.729 21.3558 140.799 25.4833H129.965ZM151.847 17.6869C150.128 17.6869 148.713 17.19 147.605 16.1964C146.535 15.1645 146 13.9033 146 12.4128C146 10.8841 146.535 9.62293 147.605 8.62927C148.713 7.59739 150.128 7.08145 151.847 7.08145C153.529 7.08145 154.905 7.59739 155.975 8.62927C157.083 9.62293 157.637 10.8841 157.637 12.4128C157.637 13.9033 157.083 15.1645 155.975 16.1964C154.905 17.19 153.529 17.6869 151.847 17.6869ZM156.72 21.0118V53H146.917V21.0118H156.72ZM173.627 26.3432C174.773 24.5852 176.207 23.2093 177.926 22.2157C179.646 21.1838 181.557 20.6678 183.659 20.6678V31.0439H180.965C178.519 31.0439 176.684 31.579 175.461 32.6491C174.238 33.681 173.627 35.5154 173.627 38.1524V53H163.824V21.0118H173.627V26.3432ZM229.161 20.6678C233.136 20.6678 236.289 21.8717 238.62 24.2794C240.989 26.6871 242.174 30.0312 242.174 34.3116V53H232.429V35.6301C232.429 33.5663 231.875 31.9803 230.766 30.872C229.696 29.7254 228.206 29.1522 226.295 29.1522C224.384 29.1522 222.874 29.7254 221.766 30.872C220.696 31.9803 220.161 33.5663 220.161 35.6301V53H210.415V35.6301C210.415 33.5663 209.861 31.9803 208.753 30.872C207.683 29.7254 206.192 29.1522 204.281 29.1522C202.37 29.1522 200.861 29.7254 199.753 30.872C198.682 31.9803 198.147 33.5663 198.147 35.6301V53H188.345V21.0118H198.147V25.0247C199.141 23.687 200.44 22.6361 202.046 21.8717C203.651 21.0691 205.466 20.6678 207.492 20.6678C209.899 20.6678 212.04 21.1838 213.912 22.2157C215.823 23.2475 217.314 24.7189 218.384 26.6298C219.492 24.8718 221.002 23.4386 222.912 22.3303C224.823 21.222 226.906 20.6678 229.161 20.6678ZM247.081 36.9486C247.081 33.6619 247.692 30.7764 248.915 28.2923C250.177 25.8081 251.877 23.8972 254.017 22.5596C256.158 21.222 258.546 20.5532 261.183 20.5532C263.438 20.5532 265.406 21.0118 267.088 21.929C268.808 22.8462 270.126 24.0501 271.043 25.5406V21.0118H280.846V53H271.043V48.4712C270.088 49.9617 268.75 51.1656 267.031 52.0828C265.349 53 263.381 53.4586 261.126 53.4586C258.527 53.4586 256.158 52.7898 254.017 51.4522C251.877 50.0763 250.177 48.1464 248.915 45.6622C247.692 43.1398 247.081 40.2353 247.081 36.9486ZM271.043 37.0059C271.043 34.56 270.356 32.63 268.98 31.2159C267.642 29.8019 265.999 29.0948 264.05 29.0948C262.101 29.0948 260.438 29.8019 259.062 31.2159C257.725 32.5918 257.056 34.5026 257.056 36.9486C257.056 39.3945 257.725 41.3436 259.062 42.7959C260.438 44.2099 262.101 44.917 264.05 44.917C265.999 44.917 267.642 44.2099 268.98 42.7959C270.356 41.3818 271.043 39.4518 271.043 37.0059ZM307.429 20.6678C311.175 20.6678 314.156 21.8908 316.372 24.3367C318.627 26.7445 319.754 30.0694 319.754 34.3116V53H310.009V35.6301C310.009 33.4899 309.455 31.8274 308.346 30.6427C307.238 29.4579 305.748 28.8655 303.875 28.8655C302.002 28.8655 300.512 29.4579 299.404 30.6427C298.295 31.8274 297.741 33.4899 297.741 35.6301V53H287.938V21.0118H297.741V25.254C298.735 23.8399 300.072 22.7316 301.754 21.929C303.436 21.0882 305.327 20.6678 307.429 20.6678Z" fill="#111111"/>
</svg>
