<svg width="10" height="12" viewBox="0 0 10 12" fill="none" xmlns="http://www.w3.org/2000/svg">
<path d="M8.13359 1.399C6.44518 -0.419134 3.70773 -0.419134 2.01933 1.399C1.61845 1.82773 1.29992 2.33986 1.08244 2.90529C0.864961 3.47071 0.75293 4.07802 0.75293 4.69153C0.75293 5.30503 0.864961 5.91234 1.08244 6.47777C1.29992 7.04319 1.61845 7.55532 2.01933 7.98405L5.07619 11.2766L8.13359 7.98405C8.53446 7.55532 8.853 7.04319 9.07048 6.47777C9.28796 5.91234 9.39999 5.30503 9.39999 4.69153C9.39999 4.07802 9.28796 3.47071 9.07048 2.90529C8.853 2.33986 8.53446 1.82773 8.13359 1.399ZM5.07619 6.24756C4.71516 6.24756 4.37629 6.09373 4.12065 5.81448C3.86758 5.53685 3.72545 5.16065 3.72545 4.76844C3.72545 4.37623 3.86758 4.00004 4.12065 3.72241C4.37575 3.44315 4.71516 3.28932 5.07619 3.28932C5.43722 3.28932 5.77663 3.44315 6.03173 3.72241C6.2848 4.00004 6.42693 4.37623 6.42693 4.76844C6.42693 5.16065 6.2848 5.53685 6.03173 5.81448C5.77663 6.09373 5.43722 6.24756 5.07619 6.24756Z" fill="#425763"/>
</svg>
