<svg width="104" height="30" viewBox="0 0 104 30" fill="none" xmlns="http://www.w3.org/2000/svg">
<rect x="0.648438" y="0.578674" width="28.8427" height="28.8427" rx="2.38764" fill="#4786FF"/>
<path d="M12.5925 8.03015C16.4897 8.91126 18.5859 11.5743 18.571 15.5407C18.5628 17.717 18.5695 19.8933 18.5695 22.1076C17.6336 22.1076 16.7508 22.1076 15.7748 22.1076C15.7748 21.576 15.7748 21.0485 15.7748 20.521C15.7746 18.6682 15.7937 16.8151 15.7693 14.9626C15.7415 12.8554 14.1216 11.0369 12.1052 10.7996C9.85333 10.5347 7.88508 11.8237 7.32787 13.9284C6.76986 16.0361 7.80824 18.1585 9.81616 19.0036C10.0239 19.091 10.2445 19.1478 10.5332 19.2432C10.5332 17.8202 10.5332 16.4735 10.5332 15.0862C11.3743 15.0862 12.1584 15.0862 12.978 15.0862C12.978 17.4114 12.978 19.7269 12.9779 22.0426C8.75126 22.7356 5.41178 20.2124 4.55995 16.6104C3.67074 12.8504 6.09552 8.96487 9.87793 8.15741C10.7329 7.97488 11.6449 8.05912 12.5925 8.03015Z" fill="white"/>
<path d="M25.6647 20.9334C25.6647 21.3494 25.6647 21.6982 25.6647 22.0979C24.7365 22.0979 23.8388 22.0979 22.8626 22.0979C22.8626 21.6194 22.8615 21.1577 22.8628 20.6961C22.8682 18.7735 22.8772 16.851 22.8794 14.9284C22.8828 11.9687 20.8883 9.25859 18.0057 8.29883C17.8336 8.24153 17.6612 8.18494 17.4375 8.111C20.8719 7.27382 24.6678 9.79638 25.4861 13.4266C25.6086 13.97 25.6562 14.5398 25.6618 15.0982C25.6811 17.0207 25.6664 18.9434 25.6647 20.9334Z" fill="white"/>
<path d="M44.4589 8.72063C44.2404 8.31816 43.9242 8.01343 43.5102 7.80645C43.1077 7.58797 42.6305 7.47872 42.0786 7.47872C41.1241 7.47872 40.3594 7.79495 39.7845 8.4274C39.2095 9.04835 38.922 9.88204 38.922 10.9285C38.922 12.0439 39.221 12.9178 39.819 13.5503C40.4284 14.1712 41.2621 14.4817 42.32 14.4817C43.0445 14.4817 43.6539 14.2977 44.1484 13.9297C44.6544 13.5618 45.0223 13.0328 45.2523 12.3429H41.5093V10.1695H47.9259V12.9121C47.7074 13.648 47.3337 14.3322 46.8047 14.9647C46.2872 15.5971 45.626 16.1088 44.8211 16.4998C44.0162 16.8908 43.1077 17.0862 42.0958 17.0862C40.8999 17.0862 39.8305 16.8275 38.8875 16.3101C37.9561 15.7811 37.2259 15.0509 36.697 14.1195C36.1795 13.188 35.9208 12.1244 35.9208 10.9285C35.9208 9.73255 36.1795 8.66888 36.697 7.73745C37.2259 6.79453 37.9561 6.06433 38.8875 5.54687C39.819 5.01791 40.8826 4.75343 42.0786 4.75343C43.5274 4.75343 44.7463 5.10415 45.7353 5.8056C46.7357 6.50705 47.3969 7.47872 47.7189 8.72063H44.4589ZM51.043 6.37481C50.5256 6.37481 50.1001 6.22532 49.7666 5.92634C49.4446 5.61587 49.2837 5.23639 49.2837 4.78793C49.2837 4.32796 49.4446 3.94849 49.7666 3.64951C50.1001 3.33904 50.5256 3.1838 51.043 3.1838C51.549 3.1838 51.9629 3.33904 52.2849 3.64951C52.6184 3.94849 52.7851 4.32796 52.7851 4.78793C52.7851 5.23639 52.6184 5.61587 52.2849 5.92634C51.9629 6.22532 51.549 6.37481 51.043 6.37481ZM52.5092 7.37523V17H49.5596V7.37523H52.5092ZM57.5962 8.97936C57.9411 8.4504 58.3724 8.03643 58.8898 7.73745C59.4073 7.42698 59.9822 7.27174 60.6147 7.27174V10.3938H59.804C59.0681 10.3938 58.5161 10.5547 58.1481 10.8767C57.7802 11.1872 57.5962 11.7392 57.5962 12.5326V17H54.6466V7.37523H57.5962V8.97936ZM74.3056 7.27174C75.5015 7.27174 76.4502 7.63396 77.1516 8.35841C77.8645 9.08285 78.221 10.089 78.221 11.3769V17H75.2887V11.7736C75.2887 11.1527 75.122 10.6755 74.7885 10.342C74.4666 9.99703 74.0181 9.82455 73.4431 9.82455C72.8682 9.82455 72.414 9.99703 72.0805 10.342C71.7585 10.6755 71.5975 11.1527 71.5975 11.7736V17H68.6652V11.7736C68.6652 11.1527 68.4985 10.6755 68.165 10.342C67.8431 9.99703 67.3946 9.82455 66.8196 9.82455C66.2447 9.82455 65.7905 9.99703 65.457 10.342C65.135 10.6755 64.974 11.1527 64.974 11.7736V17H62.0245V7.37523H64.974V8.58264C65.273 8.18017 65.664 7.86394 66.1469 7.63396C66.6299 7.39248 67.1761 7.27174 67.7856 7.27174C68.51 7.27174 69.154 7.42698 69.7174 7.73745C70.2924 8.04793 70.7408 8.49065 71.0628 9.0656C71.3963 8.53664 71.8505 8.10543 72.4255 7.77195C73.0004 7.43848 73.6271 7.27174 74.3056 7.27174ZM79.6974 12.1704C79.6974 11.1814 79.8814 10.3133 80.2494 9.56582C80.6288 8.81837 81.1405 8.24342 81.7845 7.84095C82.4284 7.43848 83.1471 7.23724 83.9406 7.23724C84.619 7.23724 85.2112 7.37523 85.7172 7.65121C86.2347 7.92719 86.6314 8.28941 86.9074 8.73788V7.37523H89.8569V17H86.9074V15.6374C86.6199 16.0858 86.2174 16.448 85.6999 16.724C85.194 17 84.6018 17.138 83.9233 17.138C83.1414 17.138 82.4284 16.9368 81.7845 16.5343C81.1405 16.1203 80.6288 15.5396 80.2494 14.7922C79.8814 14.0332 79.6974 13.1593 79.6974 12.1704ZM86.9074 12.1876C86.9074 11.4517 86.7004 10.871 86.2864 10.4455C85.8839 10.02 85.3895 9.8073 84.803 9.8073C84.2166 9.8073 83.7163 10.02 83.3024 10.4455C82.8999 10.8595 82.6987 11.4344 82.6987 12.1704C82.6987 12.9063 82.8999 13.4928 83.3024 13.9297C83.7163 14.3552 84.2166 14.5679 84.803 14.5679C85.3895 14.5679 85.8839 14.3552 86.2864 13.9297C86.7004 13.5043 86.9074 12.9236 86.9074 12.1876ZM97.8553 7.27174C98.9822 7.27174 99.8791 7.63971 100.546 8.37566C101.225 9.1001 101.564 10.1005 101.564 11.3769V17H98.6315V11.7736C98.6315 11.1297 98.4647 10.6295 98.1313 10.273C97.7978 9.91654 97.3493 9.7383 96.7859 9.7383C96.2224 9.7383 95.7739 9.91654 95.4405 10.273C95.107 10.6295 94.9403 11.1297 94.9403 11.7736V17H91.9907V7.37523H94.9403V8.65163C95.2392 8.22617 95.6417 7.89269 96.1477 7.65121C96.6536 7.39823 97.2228 7.27174 97.8553 7.27174Z" fill="#111111"/>
<path d="M40.6854 23.364V23.9526H39.7165V27H38.9872V23.9526H38.0183V23.364H40.6854ZM44.0304 23.9526V24.8642H45.2546V25.4425H44.0304V26.4062H45.4109V27H43.3011V23.3588H45.4109V23.9526H44.0304ZM47.9802 25.1768C47.9802 24.8191 48.06 24.4996 48.2198 24.2183C48.383 23.9335 48.6035 23.713 48.8814 23.5567C49.1627 23.397 49.4769 23.3171 49.8242 23.3171C50.2305 23.3171 50.5865 23.4213 50.8921 23.6297C51.1977 23.838 51.4113 24.1263 51.5328 24.4944H50.6942C50.6108 24.3207 50.4927 24.1905 50.3399 24.1037C50.1906 24.0169 50.017 23.9735 49.819 23.9735C49.6072 23.9735 49.4179 24.0238 49.2512 24.1245C49.088 24.2218 48.9595 24.3607 48.8657 24.5413C48.7754 24.7218 48.7303 24.9337 48.7303 25.1768C48.7303 25.4164 48.7754 25.6282 48.8657 25.8123C48.9595 25.9929 49.088 26.1335 49.2512 26.2342C49.4179 26.3315 49.6072 26.3801 49.819 26.3801C50.017 26.3801 50.1906 26.3367 50.3399 26.2499C50.4927 26.1596 50.6108 26.0276 50.6942 25.854H51.5328C51.4113 26.2256 51.1977 26.5155 50.8921 26.7239C50.59 26.9288 50.234 27.0313 49.8242 27.0313C49.4769 27.0313 49.1627 26.9531 48.8814 26.7968C48.6035 26.6371 48.383 26.4166 48.2198 26.1353C48.06 25.854 47.9802 25.5345 47.9802 25.1768ZM57.2555 23.364V27H56.5262V25.4529H54.9687V27H54.2394V23.364H54.9687V24.859H56.5262V23.364H57.2555ZM63.1669 27H62.4376L60.7863 24.5048V27H60.057V23.3588H60.7863L62.4376 25.8592V23.3588H63.1669V27ZM67.659 27.0365C67.3187 27.0365 67.0062 26.9566 66.7214 26.7968C66.4366 26.6371 66.2109 26.4166 66.0442 26.1353C65.8775 25.8505 65.7942 25.5293 65.7942 25.1716C65.7942 24.8174 65.8775 24.4996 66.0442 24.2183C66.2109 23.9335 66.4366 23.7113 66.7214 23.5515C67.0062 23.3918 67.3187 23.3119 67.659 23.3119C68.0029 23.3119 68.3154 23.3918 68.5967 23.5515C68.8815 23.7113 69.1055 23.9335 69.2687 24.2183C69.4354 24.4996 69.5187 24.8174 69.5187 25.1716C69.5187 25.5293 69.4354 25.8505 69.2687 26.1353C69.1055 26.4166 68.8815 26.6371 68.5967 26.7968C68.3119 26.9566 67.9994 27.0365 67.659 27.0365ZM67.659 26.3853C67.8778 26.3853 68.0706 26.3367 68.2373 26.2395C68.404 26.1387 68.5342 25.9964 68.628 25.8123C68.7217 25.6282 68.7686 25.4147 68.7686 25.1716C68.7686 24.9285 68.7217 24.7166 68.628 24.5361C68.5342 24.352 68.404 24.2113 68.2373 24.1141C68.0706 24.0169 67.8778 23.9683 67.659 23.9683C67.4403 23.9683 67.2458 24.0169 67.0756 24.1141C66.9089 24.2113 66.7787 24.352 66.6849 24.5361C66.5912 24.7166 66.5443 24.9285 66.5443 25.1716C66.5443 25.4147 66.5912 25.6282 66.6849 25.8123C66.7787 25.9964 66.9089 26.1387 67.0756 26.2395C67.2458 26.3367 67.4403 26.3853 67.659 26.3853ZM72.8743 26.4218H74.0724V27H72.145V23.364H72.8743V26.4218ZM78.3074 27.0365C77.967 27.0365 77.6545 26.9566 77.3697 26.7968C77.0849 26.6371 76.8592 26.4166 76.6925 26.1353C76.5258 25.8505 76.4425 25.5293 76.4425 25.1716C76.4425 24.8174 76.5258 24.4996 76.6925 24.2183C76.8592 23.9335 77.0849 23.7113 77.3697 23.5515C77.6545 23.3918 77.967 23.3119 78.3074 23.3119C78.6512 23.3119 78.9637 23.3918 79.245 23.5515C79.5298 23.7113 79.7538 23.9335 79.917 24.2183C80.0837 24.4996 80.167 24.8174 80.167 25.1716C80.167 25.5293 80.0837 25.8505 79.917 26.1353C79.7538 26.4166 79.5298 26.6371 79.245 26.7968C78.9602 26.9566 78.6477 27.0365 78.3074 27.0365ZM78.3074 26.3853C78.5261 26.3853 78.7189 26.3367 78.8856 26.2395C79.0523 26.1387 79.1825 25.9964 79.2763 25.8123C79.37 25.6282 79.4169 25.4147 79.4169 25.1716C79.4169 24.9285 79.37 24.7166 79.2763 24.5361C79.1825 24.352 79.0523 24.2113 78.8856 24.1141C78.7189 24.0169 78.5261 23.9683 78.3074 23.9683C78.0886 23.9683 77.8941 24.0169 77.7239 24.1141C77.5572 24.2113 77.427 24.352 77.3332 24.5361C77.2395 24.7166 77.1926 24.9285 77.1926 25.1716C77.1926 25.4147 77.2395 25.6282 77.3332 25.8123C77.427 25.9964 77.5572 26.1387 77.7239 26.2395C77.8941 26.3367 78.0886 26.3853 78.3074 26.3853ZM85.3249 24.4579C85.2416 24.3051 85.127 24.1888 84.9811 24.1089C84.8353 24.029 84.6651 23.9891 84.4706 23.9891C84.2553 23.9891 84.0643 24.0377 83.8976 24.1349C83.7309 24.2322 83.6007 24.3711 83.5069 24.5517C83.4132 24.7323 83.3663 24.9406 83.3663 25.1768C83.3663 25.4199 83.4132 25.6317 83.5069 25.8123C83.6042 25.9929 83.7379 26.1318 83.908 26.229C84.0782 26.3263 84.2762 26.3749 84.5019 26.3749C84.7797 26.3749 85.0072 26.302 85.1843 26.1561C85.3614 26.0068 85.4777 25.8002 85.5333 25.5362H84.2831V24.9788H86.2522V25.6144C86.2036 25.8679 86.0994 26.1023 85.9396 26.3176C85.7799 26.5329 85.5732 26.7065 85.3197 26.8385C85.0697 26.967 84.7884 27.0313 84.4758 27.0313C84.1251 27.0313 83.8073 26.9531 83.5226 26.7968C83.2413 26.6371 83.019 26.4166 82.8558 26.1353C82.696 25.854 82.6162 25.5345 82.6162 25.1768C82.6162 24.8191 82.696 24.4996 82.8558 24.2183C83.019 23.9335 83.2413 23.713 83.5226 23.5567C83.8073 23.397 84.1234 23.3171 84.4706 23.3171C84.8804 23.3171 85.2364 23.4178 85.5385 23.6192C85.8407 23.8172 86.049 24.0967 86.1636 24.4579H85.3249ZM89.6047 23.364V27H88.8754V23.364H89.6047ZM93.1382 23.9526V24.8642H94.3623V25.4425H93.1382V26.4062H94.5186V27H92.4089V23.3588H94.5186V23.9526H93.1382ZM98.5205 27.0365C98.2669 27.0365 98.0377 26.9931 97.8328 26.9062C97.6314 26.8194 97.4717 26.6944 97.3536 26.5312C97.2355 26.368 97.1748 26.1752 97.1713 25.953H97.9527C97.9631 26.1023 98.0152 26.2204 98.1089 26.3072C98.2062 26.394 98.3381 26.4374 98.5048 26.4374C98.675 26.4374 98.8087 26.3975 98.9059 26.3176C99.0032 26.2342 99.0518 26.1266 99.0518 25.9946C99.0518 25.887 99.0188 25.7984 98.9528 25.729C98.8868 25.6595 98.8035 25.6057 98.7028 25.5675C98.6055 25.5258 98.4701 25.4807 98.2965 25.432C98.0603 25.3626 97.8676 25.2949 97.7182 25.2289C97.5724 25.1594 97.4456 25.057 97.338 24.9215C97.2338 24.7826 97.1817 24.5986 97.1817 24.3694C97.1817 24.154 97.2355 23.9665 97.3432 23.8068C97.4508 23.647 97.6019 23.5255 97.7964 23.4421C97.9909 23.3553 98.2131 23.3119 98.4632 23.3119C98.8382 23.3119 99.1421 23.4039 99.3748 23.588C99.6109 23.7686 99.7411 24.0221 99.7655 24.3485H98.9632C98.9563 24.2235 98.9025 24.1211 98.8018 24.0412C98.7045 23.9578 98.5743 23.9162 98.4111 23.9162C98.2687 23.9162 98.1541 23.9526 98.0673 24.0256C97.9839 24.0985 97.9422 24.2044 97.9422 24.3433C97.9422 24.4406 97.9735 24.5222 98.036 24.5881C98.102 24.6507 98.1819 24.7027 98.2756 24.7444C98.3729 24.7826 98.5083 24.8278 98.6819 24.8799C98.9181 24.9493 99.1108 25.0188 99.2602 25.0882C99.4095 25.1577 99.538 25.2619 99.6456 25.4008C99.7533 25.5397 99.8071 25.722 99.8071 25.9477C99.8071 26.1422 99.7568 26.3228 99.6561 26.4895C99.5553 26.6562 99.4078 26.7899 99.2133 26.8906C99.0188 26.9878 98.7879 27.0365 98.5205 27.0365Z" fill="#111111"/>
</svg>
